<svg width="25" height="25" viewBox="0 0 25 25" fill="none" xmlns="http://www.w3.org/2000/svg">
<path d="M7.5105 11.9072V7.90723C7.5105 6.58114 8.03728 5.30937 8.97496 4.37169C9.91265 3.43401 11.1844 2.90723 12.5105 2.90723C13.8366 2.90723 15.1084 3.43401 16.046 4.37169C16.9837 5.30937 17.5105 6.58114 17.5105 7.90723V11.9072M5.5105 11.9072H19.5105C20.6151 11.9072 21.5105 12.8027 21.5105 13.9072V20.9072C21.5105 22.0118 20.6151 22.9072 19.5105 22.9072H5.5105C4.40593 22.9072 3.5105 22.0118 3.5105 20.9072V13.9072C3.5105 12.8027 4.40593 11.9072 5.5105 11.9072Z" stroke="#0069AD" stroke-width="2" stroke-linecap="round" stroke-linejoin="round"/>
</svg>
